<svg viewBox="0 0 96 96" xmlns="http://www.w3.org/2000/svg" xmlns:xlink="http://www.w3.org/1999/xlink" id="Icons_SawBlade" overflow="hidden"><style>
.MsftOfcThm_Accent1_Fill_v2 {
 fill:#4472C4; 
}
.MsftOfcThm_Accent1_Stroke_v2 {
 stroke:#4472C4; 
}
</style>
<path d="M48 56C43.6 56 40 52.4 40 48 40 43.6 43.6 40 48 40 52.4 40 56 43.6 56 48 56 52.4 52.4 56 48 56ZM85.9 53C84.8 50 83.6 47 82.1 44.1 81.8 43.6 81.8 43.1 82.1 42.6 82.3 42.1 82.8 41.7 83.3 41.6L83.9 41.5C84.5 41.4 85 40.9 85.2 40.3 85.4 39.7 85.3 39.1 84.8 38.6 82.9 36.4 80 33.2 77.9 31.2 77.5 30.8 77.3 30.3 77.4 29.7 77.5 29.2 77.8 28.7 78.2 28.4L78.3 28.3C78.8 28 79.2 27.4 79.2 26.7 79.2 26.1 78.8 25.5 78.3 25.2 75.6 23.8 71.7 21.8 69.1 20.7 68.6 20.5 68.2 20.1 68.1 19.5 68 19 68.1 18.4 68.4 18L68.5 17.8C68.9 17.3 69 16.6 68.7 16 68.4 15.4 67.9 15 67.3 15 64.3 14.8 59.9 14.4 57.1 14.4 56.6 14.4 56.1 14.1 55.7 13.7 55.4 13.3 55.3 12.7 55.4 12.2L55.4 12C55.6 11.4 55.4 10.7 54.9 10.3 54.4 9.9 53.8 9.7 53.2 9.9 50.4 10.8 46.2 12.2 43.6 13.3 43.1 13.5 42.5 13.5 42.1 13.2 41.6 12.9 41.3 12.5 41.3 11.9L41.3 11.7C41.2 11.1 40.8 10.5 40.2 10.3 39.6 10.1 38.9 10.2 38.5 10.6 36.2 12.6 32.9 15.5 30.9 17.4 30.5 17.8 30 18 29.5 17.9 29 17.8 28.5 17.5 28.2 17.1L28.1 16.9C27.8 16.4 27.2 16 26.6 16.1 26 16.1 25.4 16.5 25.1 17 23.7 19.7 21.8 23.7 20.7 26.2 20.5 26.7 20.1 27.1 19.6 27.2 19.1 27.3 18.5 27.2 18.1 26.9L17.9 27C17.4 26.6 16.7 26.5 16.1 26.8 15.5 27.1 15.1 27.6 15.1 28.2 14.9 31.2 14.5 35.6 14.5 38.4 14.5 38.9 14.3 39.4 13.8 39.8 13.4 40.1 12.8 40.2 12.3 40.1L12.1 40.1C11.5 39.9 10.8 40.1 10.4 40.6 10 41.1 9.8 41.7 10 42.3 10.9 45.1 12.3 49.4 13.3 52 13.5 52.5 13.5 53.1 13.2 53.5 13 54 12.6 54.3 12 54.4L11.8 54.4C11.2 54.5 10.6 54.9 10.4 55.5 10.2 56.1 10.3 56.8 10.7 57.2 12.6 59.5 15.5 62.9 17.5 64.9 17.9 65.3 18 65.8 18 66.4 17.9 66.9 17.6 67.4 17.2 67.7L17.1 67.7C16.5 68 16.2 68.6 16.2 69.3 16.2 70 16.6 70.5 17.2 70.8L26.4 75.2C26.9 75.4 27.3 75.9 27.4 76.4 27.5 76.9 27.4 77.5 27 77.9L26.8 78C26.4 78.5 26.3 79.2 26.6 79.8 26.9 80.4 27.4 80.8 28.1 80.8L38.3 81.3C38.8 81.3 39.3 81.6 39.6 82 39.9 82.4 40 83 39.9 83.5L39.8 83.8C39.6 84.4 39.8 85.1 40.3 85.5 40.8 85.9 41.4 86.1 42.1 85.9L51.8 82.4C52.3 82.3 52.8 82.3 53.2 82.5 53.6 82.7 53.9 83.2 54 83.6L54.2 84.4C54.3 85 54.8 85.5 55.4 85.7 56 85.9 56.7 85.7 57.1 85.3L64.3 78.3C64.7 77.9 65.2 77.8 65.7 77.8 66.2 77.9 66.7 78.2 66.9 78.6L67.1 78.9C67.4 79.5 68 79.8 68.7 79.8 69.3 79.8 69.9 79.4 70.2 78.8L74.7 69.1C74.9 68.7 75.2 68.3 75.6 68.2 76 68 76.5 68 76.9 68.2L78.1 68.7C78.6 68.9 79.3 68.9 79.7 68.5 80.2 68.2 80.5 67.6 80.5 67L80.5 56.9C80.5 55.9 81.3 55.2 82.2 55.2L84.2 55.2C84.7 55.2 85.3 54.9 85.6 54.4 86 54.1 86.1 53.5 85.9 53Z" class="MsftOfcThm_Accent1_Fill_v2 MsftOfcThm_Accent1_Stroke_v2" stroke="#4472C4" fill="#4472C4"/></svg>