<svg xmlns="http://www.w3.org/2000/svg" viewBox="0 0 720 900" role="img" aria-label="Professional photo placeholder">
  <defs>
    <linearGradient id="bg" x1="0" y1="0" x2="1" y2="1">
      <stop offset="0" stop-color="#111b34"/>
      <stop offset="0.55" stop-color="#172554"/>
      <stop offset="1" stop-color="#312e81"/>
    </linearGradient>
    <radialGradient id="glow" cx="52%" cy="30%" r="54%">
      <stop offset="0" stop-color="#7dd3fc" stop-opacity="0.42"/>
      <stop offset="1" stop-color="#7dd3fc" stop-opacity="0"/>
    </radialGradient>
    <linearGradient id="line" x1="0" y1="0" x2="1" y2="1">
      <stop offset="0" stop-color="#5eead4"/>
      <stop offset="1" stop-color="#a78bfa"/>
    </linearGradient>
  </defs>
  <rect width="720" height="900" rx="36" fill="url(#bg)"/>
  <rect width="720" height="900" rx="36" fill="url(#glow)"/>
  <g opacity="0.16" stroke="#edf5ff" stroke-width="2">
    <path d="M90 120 H630"/>
    <path d="M90 260 H630"/>
    <path d="M90 400 H630"/>
    <path d="M90 540 H630"/>
    <path d="M90 680 H630"/>
    <path d="M180 70 V830"/>
    <path d="M360 70 V830"/>
    <path d="M540 70 V830"/>
  </g>
  <circle cx="360" cy="308" r="116" fill="none" stroke="url(#line)" stroke-width="18"/>
  <path d="M214 712 C240 594 286 526 360 526 C434 526 480 594 506 712" fill="none" stroke="url(#line)" stroke-width="22" stroke-linecap="round"/>
  <path d="M160 760 C234 808 486 808 560 760" fill="none" stroke="#edf5ff" stroke-width="8" stroke-linecap="round" opacity="0.42"/>
</svg>
